HIERARCHY
ROOT hip
{
  OFFSET 0.00112043 5.09927 -9.65472
  CHANNELS 6 Xposition Yposition Zposition Zrotation Xrotation Yrotation
  JOINT abdomen
  {
    OFFSET 0 -1.186 -1.5018
    CHANNELS 3 Zrotation Xrotation Yrotation
    JOINT abdomen2
    {
      OFFSET 0 9.964 0.2134
      CHANNELS 3 Zrotation Xrotation Yrotation
      JOINT chest
      {
        OFFSET 0 13.134 -3.2573
        CHANNELS 3 Zrotation Xrotation Yrotation
        JOINT neck
        {
          OFFSET 0 20.686 -1.6905
          CHANNELS 3 Zrotation Xrotation Yrotation
          JOINT head
          {
            OFFSET 0 7.238 -0.1237
            CHANNELS 3 Zrotation Xrotation Yrotation
            End Site
            {
              OFFSET 0 0 0
            }
          }
        }
        JOINT lCollar
        {
          OFFSET 1.7069 20.075 5.0056
          CHANNELS 3 Zrotation Xrotation Yrotation
          JOINT lShldr
          {
            OFFSET 13.6458 -0.047 -4.849
            CHANNELS 3 Zrotation Xrotation Yrotation
            JOINT lForeArm
            {
              OFFSET 28.3255 -0.9759 2.2888
              CHANNELS 3 Zrotation Xrotation Yrotation
              JOINT lHand
              {
                OFFSET 22.1583 -0.53 10.8316
                CHANNELS 3 Zrotation Xrotation Yrotation
                JOINT lThumb1
                {
                  OFFSET 0.786 0.112 2.5817
                  CHANNELS 3 Zrotation Xrotation Yrotation
                  JOINT lThumb2
                  {
                    OFFSET 0.3601 -0.878 4.2331
                    CHANNELS 3 Zrotation Xrotation Yrotation
                    JOINT lThumb2_End
                    {
                      OFFSET 1.8127 -1.216 2.2227
                      CHANNELS 3 Zrotation Xrotation Yrotation
                      End Site
                      {
                        OFFSET 0.0181 -0.0122 0.0222
                      }
                    }
                  }
                }
                JOINT lCarpal1
                {
                  OFFSET 0.9571 1.114 1.7695
                  CHANNELS 3 Zrotation Xrotation Yrotation
                  JOINT lIndex1
                  {
                    OFFSET 4.1246 0.487 4.1451
                    CHANNELS 3 Zrotation Xrotation Yrotation
                    JOINT lIndex2
                    {
                      OFFSET 3.4052 -1.454 2.7682
                      CHANNELS 3 Zrotation Xrotation Yrotation
                      JOINT lIndex2_End
                      {
                        OFFSET 1.4531 -1.795 1.2713
                        CHANNELS 3 Zrotation Xrotation Yrotation
                        End Site
                        {
                          OFFSET 0.0145 -0.0179 0.0127
                        }
                      }
                    }
                  }
                  JOINT lMid1
                  {
                    OFFSET 5.6954 0.21 2.1184
                    CHANNELS 3 Zrotation Xrotation Yrotation
                    JOINT lMid2
                    {
                      OFFSET 3.9766 -1.54 2.3863
                      CHANNELS 3 Zrotation Xrotation Yrotation
                      JOINT lMid2_End
                      {
                        OFFSET 1.4042 -1.926 1.125
                        CHANNELS 3 Zrotation Xrotation Yrotation
                        End Site
                        {
                          OFFSET 0.014 -0.0193 0.0113
                        }
                      }
                    }
                  }
                }
                JOINT lCarpal2
                {
                  OFFSET 2.0956 0.66 -0.3894
                  CHANNELS 3 Zrotation Xrotation Yrotation
                  JOINT lRing1
                  {
                    OFFSET 5.0395 -0.09 2.4971
                    CHANNELS 3 Zrotation Xrotation Yrotation
                    JOINT lRing2
                    {
                      OFFSET 3.7921 -1.552 1.4806
                      CHANNELS 3 Zrotation Xrotation Yrotation
                      JOINT lRing2_End
                      {
                        OFFSET 1.4655 -1.808 0.9609
                        CHANNELS 3 Zrotation Xrotation Yrotation
                        End Site
                        {
                          OFFSET 0.0147 -0.0181 0.0096
                        }
                      }
                    }
                  }
                  JOINT lPinky1
                  {
                    OFFSET 4.9141 -1.269 0.3591
                    CHANNELS 3 Zrotation Xrotation Yrotation
                    JOINT lPinky2
                    {
                      OFFSET 3.1477 -1.685 0.8462
                      CHANNELS 3 Zrotation Xrotation Yrotation
                      JOINT lPinky2_End
                      {
                        OFFSET 0.8055 -1.585 0.7955
                        CHANNELS 3 Zrotation Xrotation Yrotation
                        End Site
                        {
                          OFFSET 0.0081 -0.0158 0.008
                        }
                      }
                    }
                  }
                }
              }
            }
          }
        }
        JOINT rCollar
        {
          OFFSET -1.7069 20.075 5.0056
          CHANNELS 3 Zrotation Xrotation Yrotation
          JOINT rShldr
          {
            OFFSET -13.6458 -0.047 -4.849
            CHANNELS 3 Zrotation Xrotation Yrotation
            JOINT rForeArm
            {
              OFFSET -28.3255 -0.9759 2.2888
              CHANNELS 3 Zrotation Xrotation Yrotation
              JOINT rHand
              {
                OFFSET -22.1583 -0.53 10.8316
                CHANNELS 3 Zrotation Xrotation Yrotation
                JOINT rThumb1
                {
                  OFFSET -0.786 0.112 2.5817
                  CHANNELS 3 Zrotation Xrotation Yrotation
                  JOINT rThumb2
                  {
                    OFFSET -0.3601 -0.878 4.2331
                    CHANNELS 3 Zrotation Xrotation Yrotation
                    JOINT rThumb2_End
                    {
                      OFFSET -1.8127 -1.216 2.2227
                      CHANNELS 3 Zrotation Xrotation Yrotation
                      End Site
                      {
                        OFFSET -0.0181 -0.0122 0.0222
                      }
                    }
                  }
                }
                JOINT rCarpal1
                {
                  OFFSET -0.9571 1.114 1.7695
                  CHANNELS 3 Zrotation Xrotation Yrotation
                  JOINT rIndex1
                  {
                    OFFSET -4.1246 0.487 4.1451
                    CHANNELS 3 Zrotation Xrotation Yrotation
                    JOINT rIndex2
                    {
                      OFFSET -3.4052 -1.454 2.7682
                      CHANNELS 3 Zrotation Xrotation Yrotation
                      JOINT rIndex2_End
                      {
                        OFFSET -1.4531 -1.795 1.2713
                        CHANNELS 3 Zrotation Xrotation Yrotation
                        End Site
                        {
                          OFFSET -0.0145 -0.018 0.0127
                        }
                      }
                    }
                  }
                  JOINT rMid1
                  {
                    OFFSET -5.6954 0.21 2.1184
                    CHANNELS 3 Zrotation Xrotation Yrotation
                    JOINT rMid2
                    {
                      OFFSET -3.9766 -1.54 2.3863
                      CHANNELS 3 Zrotation Xrotation Yrotation
                      JOINT rMid2_End
                      {
                        OFFSET -1.4042 -1.926 1.125
                        CHANNELS 3 Zrotation Xrotation Yrotation
                        End Site
                        {
                          OFFSET -0.014 -0.0193 0.0113
                        }
                      }
                    }
                  }
                }
                JOINT rCarpal2
                {
                  OFFSET -2.0956 0.66 -0.3894
                  CHANNELS 3 Zrotation Xrotation Yrotation
                  JOINT rRing1
                  {
                    OFFSET -5.0395 -0.09 2.4971
                    CHANNELS 3 Zrotation Xrotation Yrotation
                    JOINT rRing2
                    {
                      OFFSET -3.7921 -1.552 1.4806
                      CHANNELS 3 Zrotation Xrotation Yrotation
                      JOINT rRing2_End
                      {
                        OFFSET -1.4655 -1.808 0.9609
                        CHANNELS 3 Zrotation Xrotation Yrotation
                        End Site
                        {
                          OFFSET -0.0147 -0.0181 0.0096
                        }
                      }
                    }
                  }
                  JOINT rPinky1
                  {
                    OFFSET -4.9141 -1.269 0.3592
                    CHANNELS 3 Zrotation Xrotation Yrotation
                    JOINT rPinky2
                    {
                      OFFSET -3.1477 -1.685 0.8462
                      CHANNELS 3 Zrotation Xrotation Yrotation
                      JOINT rPinky2_End
                      {
                        OFFSET -0.8055 -1.585 0.7955
                        CHANNELS 3 Zrotation Xrotation Yrotation
                        End Site
                        {
                          OFFSET -0.0081 -0.0158 0.008
                        }
                      }
                    }
                  }
                }
              }
            }
          }
        }
      }
    }
  }
  JOINT lThigh
  {
    OFFSET 8.367 -8.2066 0.5982
    CHANNELS 3 Zrotation Xrotation Yrotation
    JOINT lShin
    {
      OFFSET 2.1923 -43.463 -0.4932
      CHANNELS 3 Zrotation Xrotation Yrotation
      JOINT lFoot
      {
        OFFSET 0.7333 -45.8593 -2.6451
        CHANNELS 3 Zrotation Xrotation Yrotation
        End Site
        {
          OFFSET 2.6618 -4.2699 12.3931
        }
      }
    }
  }
  JOINT rThigh
  {
    OFFSET -8.367 -8.2066 0.5982
    CHANNELS 3 Zrotation Xrotation Yrotation
    JOINT rShin
    {
      OFFSET -2.1923 -43.463 -0.4931
      CHANNELS 3 Zrotation Xrotation Yrotation
      JOINT rFoot
      {
        OFFSET -0.7333 -45.8593 -2.6451
        CHANNELS 3 Zrotation Xrotation Yrotation
        End Site
        {
          OFFSET -2.6618 -4.2699 12.3931
        }
      }
    }
  }
}
MOTION
Frames:	4
Frame Time:	0.0333333
0 91.7903 2.51682 0 0 -0 0 0 -0 0 0 -0 0 0 -0 0 0 -0 -0 0 0.00140347 0 0 -0 1.66051 0.0835086 5.75766 -0.0175111 0.895433 15.7816 7.95139e-016 -1.98785e-016 -0 5.46658e-016 -3.97569e-016 -0 5.96354e-016 0 -0 3.97569e-016 1.98785e-016 9.54166e-015 1.49089e-016 -3.97569e-016 -0 6.4605e-016 0 3.18055e-015 5.96354e-016 0 3.18055e-015 8.94531e-016 -1.98785e-016 6.36111e-015 6.4605e-016 0 3.18055e-015 5.96354e-016 0 3.18055e-015 8.94531e-016 -1.98785e-016 6.36111e-015 1.49089e-016 -3.97569e-016 -0 6.4605e-016 0 3.18055e-015 5.96354e-016 0 3.18055e-015 8.94531e-016 -1.98785e-016 6.36111e-015 6.4605e-016 0 3.18055e-015 5.96354e-016 0 3.18055e-015 8.94531e-016 -1.98785e-016 6.36111e-015 0 0 -0 -1.4496 0.0636048 -5.0245 -1.74811 1.20616 -16.8394 -1.19271e-015 1.98785e-016 -3.18055e-015 -3.97569e-016 1.98785e-016 -3.18055e-015 -2.98177e-016 1.98785e-016 -3.18055e-015 -2.98177e-016 3.97569e-016 -0 4.96962e-016 0 -6.36111e-015 -9.93923e-017 3.97569e-016 -0 -8.94531e-016 5.96354e-016 -0 -3.97569e-016 3.97569e-016 -0 -9.93923e-017 3.97569e-016 -0 -8.94531e-016 5.96354e-016 -0 -3.97569e-016 3.97569e-016 -0 4.96962e-016 0 -6.36111e-015 -9.93923e-017 3.97569e-016 -0 -8.94531e-016 5.96354e-016 -0 -3.97569e-016 3.97569e-016 -0 -9.93923e-017 3.97569e-016 -0 -8.94531e-016 5.96354e-016 -0 -3.97569e-016 3.97569e-016 -0 -4.66111 -0.998717 0.12318 0.00986924 1.54847 0.176523 4.65186 -0.572283 -0.254274 4.66111 -0.998765 -0.123176 -0.00986867 1.54869 -0.176537 -4.65186 -0.572453 0.25427 
1.73735 57.8308 10.2802 0 40.9966 -0 -1.27927 -1.01651 -1.77605 -2.59002 -1.99262 -3.57518 -2.59003 -1.99263 -3.57518 2.39221e-005 -0.0892019 5.40217e-006 -0.176611 0.389924 0.00140262 -9.36489 -7.85822 -40.2587 -38.6553 -4.39125 32.4485 -19.9076 18.5875 -47.7684 24.5427 -40.4934 -12.6219 6.95746e-016 9.93923e-017 -0 3.47873e-016 3.97569e-016 -3.18055e-015 7.45443e-016 8.94531e-016 -0 6.95746e-016 -2.98177e-016 -0 4.96962e-017 -1.19271e-015 9.54166e-015 3.47873e-016 -4.96962e-016 -3.18055e-015 1.98785e-016 -7.95139e-016 -3.18055e-015 4.96962e-017 -1.19271e-015 9.54166e-015 3.47873e-016 -4.96962e-016 -3.18055e-015 1.98785e-016 -7.95139e-016 -3.18055e-015 6.95746e-016 -2.98177e-016 -0 4.96962e-017 -1.19271e-015 9.54166e-015 3.47873e-016 -4.96962e-016 -3.18055e-015 1.98785e-016 -7.95139e-016 -3.18055e-015 4.96962e-017 -1.19271e-015 9.54166e-015 3.47873e-016 -4.96962e-016 -3.18055e-015 1.98785e-016 -7.95139e-016 -3.18055e-015 47.6255 -4.39818 -14.0615 32.0262 -3.99643 -23.9799 33.1666 19.5078 -6.72212 42.4205 -22.5839 37.1661 3.18055e-015 3.18055e-015 -5.1684e-015 -1.99719e-006 1.34519e-006 -2.27751e-006 1.59028e-015 1.59028e-014 -5.96354e-016 3.18055e-015 1.59028e-015 -5.1684e-015 3.18055e-015 3.18055e-015 -1.59028e-015 -1.99719e-006 1.34519e-006 -2.27751e-006 -9.71059e-031 1.74931e-014 3.18055e-015 3.18055e-015 3.18055e-015 -1.59028e-015 -1.99719e-006 1.34519e-006 -2.27751e-006 -9.71059e-031 1.74931e-014 3.18055e-015 3.18055e-015 1.59028e-015 -5.1684e-015 3.18055e-015 3.18055e-015 -1.59028e-015 -1.99719e-006 1.34519e-006 -2.27751e-006 -9.71059e-031 1.74931e-014 3.18055e-015 3.18055e-015 3.18055e-015 -1.59028e-015 -1.99719e-006 1.34519e-006 -2.27751e-006 -9.71059e-031 1.74931e-014 3.18055e-015 59.5657 -29.1274 24.3832 17.197 86.2324 -11.2162 -60.0337 43.4151 67.7226 -59.608 -29.116 -24.4603 -18.0703 86.2172 12.0993 59.9569 43.4705 -67.6851 
1.73612 57.8073 10.7154 0 40.0552 -0 -1.28055 -0.94868 -1.77131 -2.59032 -1.8571 -3.56408 -2.59032 -1.8571 -3.56408 0.000234222 -0.0448462 -7.63005e-006 -0.176053 0.462312 0.00140426 -9.588 -7.44363 -40.2037 -38.6618 -4.39487 32.4322 -19.8139 18.2864 -46.9598 23.9778 -40.5503 -13.1214 -9.93923e-017 0 6.36111e-015 1.98785e-016 -7.95139e-016 -0 -9.44227e-016 -2.98177e-016 -3.18055e-015 -9.93923e-017 -9.93923e-017 6.36111e-015 -7.95139e-016 -1.39149e-015 1.59028e-014 -1.49089e-016 -6.95746e-016 -3.18055e-015 -4.96962e-017 -2.98177e-016 -3.18055e-015 -7.95139e-016 -1.39149e-015 1.59028e-014 -1.49089e-016 -6.95746e-016 -3.18055e-015 -4.96962e-017 -2.98177e-016 -3.18055e-015 -9.93923e-017 -9.93923e-017 6.36111e-015 -7.95139e-016 -1.39149e-015 1.59028e-014 -1.49089e-016 -6.95746e-016 -3.18055e-015 -4.96962e-017 -2.98177e-016 -3.18055e-015 -7.95139e-016 -1.39149e-015 1.59028e-014 -1.49089e-016 -6.95746e-016 -3.18055e-015 -4.96962e-017 -2.98177e-016 -3.18055e-015 47.7773 -4.42871 -13.8263 32.0718 -3.97667 -23.5448 33.1666 19.5078 -6.72209 43.2262 -22.8578 36.3291 -3.28812e-006 -4.88586e-006 -5.65216e-007 3.28812e-006 4.88586e-006 5.65216e-007 -3.28812e-006 -4.88586e-006 -5.65216e-007 7.95139e-016 -1.59028e-015 -1.19271e-015 -3.28812e-006 -4.88586e-006 -5.65216e-007 3.28812e-006 4.88586e-006 5.65216e-007 -3.28812e-006 -4.88586e-006 -5.65216e-007 -3.28812e-006 -4.88586e-006 -5.65216e-007 3.28812e-006 4.88586e-006 5.65216e-007 -3.28812e-006 -4.88586e-006 -5.65216e-007 7.95139e-016 -1.59028e-015 -1.19271e-015 -3.28812e-006 -4.88586e-006 -5.65216e-007 3.28812e-006 4.88586e-006 5.65216e-007 -3.28812e-006 -4.88586e-006 -5.65216e-007 -3.28812e-006 -4.88586e-006 -5.65216e-007 3.28812e-006 4.88586e-006 5.65216e-007 -3.28812e-006 -4.88586e-006 -5.65216e-007 59.3678 -27.7902 23.9565 13.8186 85.594 -7.92362 -59.37 43.7748 67.3222 -59.3872 -27.7706 -24.0316 -14.576 85.5833 8.69166 59.2897 43.8295 -67.281 
1.73488 57.7837 11.1479 0 39.1127 -0 -1.28183 -0.880867 -1.76656 -2.59065 -1.72155 -3.55298 -2.59065 -1.72156 -3.55298 1.68388e-005 0.00109235 7.85111e-006 -0.175496 0.53469 0.00140521 -9.81133 -7.02912 -40.147 -38.6682 -4.39849 32.4159 -19.7158 17.9862 -46.1514 23.4117 -40.6034 -13.6222 -5.96354e-016 2.98177e-016 3.18055e-015 -1.59028e-015 5.96354e-016 3.18055e-015 -1.98785e-016 4.96962e-016 3.18055e-015 9.93923e-017 1.98785e-016 9.54166e-015 1.98785e-016 9.93923e-017 1.59028e-014 4.96962e-016 3.97569e-016 3.18055e-015 2.48481e-016 6.95746e-016 -3.18055e-015 1.98785e-016 9.93923e-017 1.59028e-014 4.96962e-016 3.97569e-016 3.18055e-015 2.48481e-016 6.95746e-016 -3.18055e-015 9.93923e-017 1.98785e-016 9.54166e-015 1.98785e-016 9.93923e-017 1.59028e-014 4.96962e-016 3.97569e-016 3.18055e-015 2.48481e-016 6.95746e-016 -3.18055e-015 1.98785e-016 9.93923e-017 1.59028e-014 4.96962e-016 3.97569e-016 3.18055e-015 2.48481e-016 6.95746e-016 -3.18055e-015 47.9293 -4.45857 -13.5911 32.1173 -3.95656 -23.1095 33.1666 19.5078 -6.72208 44.0311 -23.1433 35.4927 7.79747e-007 9.31516e-007 -3.31697e-006 -7.95139e-016 -3.18055e-015 -5.76476e-015 -7.95139e-016 3.18055e-015 -5.56597e-015 -2.42765e-031 1.59028e-015 8.74653e-015 7.79747e-007 9.31516e-007 -3.31697e-006 -7.95139e-016 1.59028e-015 5.96354e-016 -1.54487e-031 -3.18055e-015 -2.78299e-015 7.79747e-007 9.31516e-007 -3.31697e-006 -7.95139e-016 1.59028e-015 5.96354e-016 -1.54487e-031 -3.18055e-015 -2.78299e-015 -2.42765e-031 1.59028e-015 8.74653e-015 7.79747e-007 9.31516e-007 -3.31697e-006 -7.95139e-016 1.59028e-015 5.96354e-016 -1.54487e-031 -3.18055e-015 -2.78299e-015 7.79747e-007 9.31516e-007 -3.31697e-006 -7.95139e-016 1.59028e-015 5.96354e-016 -1.54487e-031 -3.18055e-015 -2.78299e-015 59.1828 -26.4524 23.5393 11.3041 84.9444 -5.49539 -58.701 44.1326 66.9162 -59.1795 -26.4247 -23.6131 -11.9685 84.9374 6.17098 58.6172 44.1864 -66.8712 
